<svg data-v-423bf9ae="" xmlns="http://www.w3.org/2000/svg" viewBox="0 0 527 107" class="iconLeft"><!----><!----><!----><g data-v-423bf9ae="" id="a891862c-8f4e-449c-b83f-bb75b92d7d5c" fill="white" transform="matrix(4.10958893372029,0,0,4.10958893372029,97.57146898215692,4.083639453691774)"><path d="M9.65 4.65L8.03 4.66L6.01 4.64L5.99 4.78C6.88 4.78 7.14 4.85 7.14 5.33C7.14 5.52 7.10 5.78 7.04 6.13L6.35 10.16C6.15 10.15 5.95 10.14 5.77 10.14C2.99 10.14 1.14 11.94 1.14 14.64C1.14 15.93 1.87 16.79 2.95 16.79C6.30 16.79 7.39 14.77 8.29 10.75C9.52 10.92 11.17 11.12 12.41 11.14L11.74 14.99C11.72 15.13 11.70 15.29 11.70 15.44C11.70 17.73 13.27 19.24 15.61 19.24C17.25 19.24 18.33 18.68 18.33 17.81C18.33 17.23 17.45 17.05 17.09 17.05C17.09 18.06 16.19 18.74 15.22 18.74C13.78 18.74 13.15 18.33 13.15 17.04C13.15 16.72 13.23 16.32 13.30 15.99L14.44 10.96C15.20 10.77 15.76 10.42 16.02 9.80L15.62 9.57C15.48 9.96 15.11 10.21 14.58 10.37L15.05 8.27C15.19 7.68 15.80 5.39 15.87 4.65L14.25 4.66L13.46 4.64L13.44 4.78C13.38 5.35 13.35 5.63 13.26 6.13L12.50 10.59C11.31 10.59 9.65 10.45 8.37 10.33L8.83 8.27C8.97 7.68 9.58 5.39 9.65 4.65ZM6.29 10.51C5.85 13.03 5.68 16.17 3.06 16.17C2.21 16.17 1.64 15.49 1.64 14.46C1.64 12.07 3.27 10.48 5.70 10.48C5.88 10.48 6.08 10.49 6.29 10.51ZM19.68 15.65C18.78 15.65 18.35 15.22 18.35 14.12C18.35 11.81 19.44 9.50 20.88 9.50C21.72 9.50 22.16 10.11 22.16 11.27C22.16 13.78 21.11 15.65 19.68 15.65ZM20.95 9.15C18.31 9.15 16.31 10.58 16.31 13.28C16.31 14.94 17.55 16.00 19.61 16.00C22.18 16.00 24.27 14.36 24.27 11.70C24.27 10.04 23.13 9.15 20.95 9.15ZM27.54 9.23C26.78 9.23 26.11 9.43 25.66 10.31L25.26 11.08L25.38 11.14L25.78 10.37C25.98 9.97 26.22 9.72 26.39 9.72C26.52 9.72 26.60 9.86 26.60 10.19C26.60 10.32 26.58 10.49 26.55 10.71L25.72 15.64C25.72 15.65 25.72 15.65 25.72 15.65C25.72 15.79 26.20 15.86 26.65 15.86L27.51 15.86C27.56 15.86 27.64 15.83 27.65 15.78L28.35 12.91C28.45 12.47 28.64 11.84 28.73 11.22L29.80 10.34C30.11 10.09 30.41 9.83 30.63 9.83C30.81 9.83 30.92 10.01 30.92 10.53C30.92 10.83 30.88 11.27 30.78 11.87L30.16 15.67C30.16 15.68 30.16 15.68 30.16 15.69C30.16 15.83 30.63 15.89 31.09 15.89L31.95 15.89C31.99 15.89 32.08 15.87 32.09 15.82L32.81 12.91C32.84 12.76 32.87 12.61 32.90 12.46C32.99 12.02 33.03 11.59 33.03 11.23L34.10 10.34C34.41 10.10 34.79 9.82 35.08 9.82C35.37 9.82 35.46 10.08 35.46 10.44C35.46 10.88 35.31 11.48 35.23 11.87L35.06 12.60C34.95 13.10 34.88 13.60 34.88 14.06C34.88 15.16 35.29 16.02 36.59 16.02C37.13 16.02 37.71 15.67 38.12 14.85L38.76 13.60L38.64 13.53L38.14 14.51C37.93 14.92 37.57 15.14 37.28 15.14C37.02 15.14 36.80 14.96 36.80 14.58C36.80 14.45 36.83 14.29 36.89 14.11L37.26 12.91C37.46 12.22 37.67 11.44 37.67 10.78C37.67 9.86 37.28 9.14 36.02 9.14C35.42 9.14 34.64 9.47 33.89 10.08L33.01 10.81C32.90 9.73 32.37 9.17 31.58 9.17C31.02 9.17 30.34 9.46 29.58 10.08L28.78 10.75C28.78 10.70 28.78 10.65 28.78 10.60C28.78 9.84 28.50 9.23 27.54 9.23ZM41.76 13.64C44.69 13.62 47.24 12.69 47.24 10.85C47.24 9.74 46.22 9.15 44.28 9.15C41.64 9.15 39.64 10.58 39.64 13.28C39.64 14.94 40.89 16.00 42.94 16.00C44.43 16.00 45.71 15.45 46.54 14.52L46.29 14.29C45.74 14.96 44.57 15.53 43.57 15.53C42.31 15.53 41.75 15.06 41.75 13.86C41.75 13.79 41.75 13.72 41.76 13.64ZM41.78 13.30C41.95 11.33 43.00 9.50 44.21 9.50C44.96 9.50 45.35 9.90 45.35 10.66C45.35 12.54 43.98 13.30 41.78 13.30ZM54.85 4.64L54.83 4.78C55.73 4.78 55.99 4.85 55.99 5.33C55.99 5.52 55.95 5.78 55.88 6.13L54.26 15.64C54.26 15.65 54.25 15.71 54.25 15.72C54.25 15.83 54.73 15.86 55.19 15.86L55.84 15.86C55.88 15.86 55.97 15.83 55.98 15.78L57.67 8.27C57.81 7.68 58.43 5.39 58.50 4.65L56.87 4.66ZM60.57 9.23C59.82 9.23 59.14 9.43 58.69 10.31L58.30 11.08L58.42 11.14L58.82 10.37C59.02 9.97 59.26 9.72 59.43 9.72C59.55 9.72 59.64 9.86 59.64 10.19C59.64 10.32 59.62 10.49 59.59 10.71L58.78 15.56C58.78 15.57 58.76 15.65 58.76 15.65C58.76 15.79 59.23 15.86 59.69 15.86L60.52 15.86C60.56 15.86 60.65 15.83 60.66 15.78L61.39 12.91C61.46 12.59 61.58 12.18 61.68 11.75L63.38 10.34C63.69 10.10 64.07 9.84 64.35 9.84C64.65 9.84 64.74 10.10 64.74 10.45C64.74 10.90 64.59 11.48 64.50 11.87L64.34 12.60C64.23 13.10 64.16 13.60 64.16 14.06C64.16 15.16 64.57 16.02 65.86 16.02C66.41 16.02 66.99 15.67 67.40 14.85L68.04 13.60L67.92 13.53L67.42 14.51C67.20 14.92 66.85 15.14 66.55 15.14C66.29 15.14 66.08 14.96 66.08 14.58C66.08 14.45 66.11 14.29 66.17 14.11L66.53 12.91C66.74 12.22 66.94 11.45 66.94 10.79C66.94 9.87 66.56 9.16 65.30 9.16C64.70 9.16 63.92 9.47 63.16 10.08L61.78 11.22C61.80 11.01 61.82 10.81 61.82 10.61C61.82 9.84 61.54 9.23 60.57 9.23ZM69.91 9.65L69.46 12.56C69.39 13.03 69.27 13.67 69.27 14.27C69.27 15.39 70.12 15.96 71.02 15.96C71.74 15.96 72.50 15.59 72.88 14.85L73.48 13.67L73.36 13.60L72.89 14.51C72.71 14.88 72.17 15.16 71.71 15.16C71.32 15.16 70.98 14.94 70.98 14.40C70.98 14.31 71.00 14.22 71.02 14.11L72.00 9.65L74.09 9.65L74.09 9.30L72.08 9.30L72.66 6.69C72.66 6.69 72.67 6.66 72.67 6.65C72.67 6.63 72.60 6.62 72.52 6.62L71.72 6.62C71.09 6.62 70.28 7.29 70.14 8.13L69.97 9.30L68.58 9.30L68.58 9.65ZM76.54 13.64C79.46 13.62 82.02 12.69 82.02 10.85C82.02 9.74 80.99 9.15 79.05 9.15C76.41 9.15 74.42 10.58 74.42 13.28C74.42 14.94 75.67 16.00 77.72 16.00C79.20 16.00 80.48 15.45 81.31 14.52L81.06 14.29C80.51 14.96 79.34 15.53 78.34 15.53C77.08 15.53 76.53 15.06 76.53 13.86C76.53 13.79 76.53 13.72 76.54 13.64ZM76.56 13.30C76.73 11.33 77.78 9.50 78.98 9.50C79.73 9.50 80.12 9.90 80.12 10.66C80.12 12.54 78.75 13.30 76.56 13.30ZM85.09 9.23C84.34 9.23 83.67 9.43 83.21 10.31L82.82 11.08L82.94 11.14L83.34 10.37C83.54 9.97 83.78 9.72 83.95 9.72C84.08 9.72 84.16 9.86 84.16 10.19C84.16 10.32 84.14 10.49 84.11 10.71L83.28 15.64C83.28 15.67 83.28 15.70 83.28 15.71C83.28 15.83 83.69 15.87 84.14 15.87L85.03 15.86C85.03 15.86 85.17 15.83 85.18 15.78L85.91 12.91C86.36 11.11 87.49 9.54 88.37 9.54C88.92 9.54 89.28 10.01 89.37 10.90C89.43 10.93 89.50 10.94 89.58 10.94C90.08 10.94 90.74 10.47 90.74 9.82C90.74 9.13 90.19 8.66 89.35 8.66C88.30 8.66 86.95 9.69 86.33 10.91C86.34 10.79 86.34 10.72 86.34 10.61C86.34 9.84 86.06 9.23 85.09 9.23ZM92.77 5.71C92.77 6.28 93.23 6.77 93.83 6.77C94.40 6.77 94.89 6.31 94.89 5.71C94.89 5.13 94.42 4.65 93.83 4.65C93.26 4.65 92.77 5.11 92.77 5.71ZM95.63 13.67L95.52 13.60L95.05 14.51C94.83 14.92 94.43 15.15 94.09 15.15C93.77 15.15 93.50 14.94 93.50 14.51C93.50 14.39 93.52 14.26 93.56 14.11L93.89 12.91C94.05 12.32 94.64 10.04 94.71 9.30L93.08 9.30C92.33 9.30 91.65 9.45 91.20 10.34L90.80 11.11L90.92 11.17L91.32 10.40C91.53 9.99 91.78 9.73 91.94 9.73C92.07 9.73 92.15 9.86 92.15 10.17C92.15 10.32 92.13 10.49 92.09 10.71L91.77 12.56C91.68 13.04 91.53 13.71 91.53 14.31C91.53 15.39 92.34 15.94 93.21 15.94C93.92 15.94 94.66 15.58 95.03 14.85ZM99.89 15.65C98.98 15.65 98.56 15.22 98.56 14.12C98.56 11.81 99.65 9.50 101.08 9.50C101.92 9.50 102.37 10.11 102.37 11.27C102.37 13.78 101.32 15.65 99.89 15.65ZM101.15 9.15C98.51 9.15 96.52 10.58 96.52 13.28C96.52 14.94 97.76 16.00 99.82 16.00C102.39 16.00 104.47 14.36 104.47 11.70C104.47 10.04 103.33 9.15 101.15 9.15Z"></path></g><!----><g data-v-423bf9ae="" id="4b6ba4b8-57b4-4751-b738-6629af814f74" transform="matrix(1.0868111504448785,0,0,1.0868111504448785,-13.255261890115804,-0.23894260335429607)" stroke="none" fill="white"><g clip-rule="evenodd"><path d="M12.983 10.59l17.018 88.223-5.872-59.049 29.021-1.892-.054-9.883L64.549 1 53.622 18.977z"></path><path d="M59.389 54.548l5.16-53.541-8.74 39.716-19.612 1.045 1.57 20.462-7.766 36.583 12.057-39.899z"></path><path d="M62.8 67.182l.549-10.453-15.979 3.755-.032 11.797-17.337 26.532 21.68-27.616zM65.711 62.394l14.841-4.731 1.509-12.532-15.899 2.095zM72.07 44.502l10.988-1.417 1.581-10.278-8.079-.373L64.549 1l8.43 30.967z"></path><path d="M87.413 31.294l1.256-9.506-9.544-2.694L64.549 1l14.483 22.437-.422 7z"></path></g></g><!----></svg>