<svg data-v-423bf9ae="" xmlns="http://www.w3.org/2000/svg" viewBox="0 0 490.2856881277902 60" class="font"><!----><!----><!----><g data-v-423bf9ae="" id="fd4a14cd-6229-4227-94f9-4722d2fbea0c" fill="white" transform="matrix(5.714285714285714,0,0,5.714285714285714,-3.7714350819587708,-20.799999884196694)"><path d="M9.48 13.38L9.48 4.82L10.60 4.63L10.60 4.20L6.99 4.20L6.99 4.63L8.11 4.82L8.11 8.61L3.15 8.61L3.15 4.82L4.27 4.63L4.27 4.20L0.66 4.20L0.66 4.63L1.78 4.82L1.78 13.38L0.66 13.57L0.66 14L4.27 14L4.27 13.57L3.15 13.38L3.15 9.31L8.11 9.31L8.11 13.38L6.99 13.57L6.99 14L10.60 14L10.60 13.57ZM15.02 13.45C13.79 13.45 13.05 12.29 13.05 10.49C13.05 8.76 13.59 7.55 15.05 7.55C16.28 7.55 17.02 8.71 17.02 10.51C17.02 12.24 16.48 13.45 15.02 13.45ZM14.85 14.14C17.18 14.14 18.35 12.50 18.35 10.35C18.35 8.27 17.18 6.86 15.22 6.86C12.89 6.86 11.72 8.50 11.72 10.65C11.72 12.73 12.89 14.14 14.85 14.14ZM26.17 9.21C26.17 8.95 26.14 8.61 26.10 8.37C26.60 8.12 27.08 7.91 27.71 7.91C28.63 7.91 29.12 8.51 29.12 9.52L29.12 13.40L28.14 13.57L28.14 14L31.54 14L31.54 13.57L30.42 13.40L30.42 9.31C30.42 7.83 29.68 6.86 28.29 6.86C27.26 6.86 26.47 7.39 25.93 7.92C25.62 7.24 25.02 6.86 24.22 6.86C23.30 6.86 22.47 7.34 21.87 7.83L21.92 7L21.64 6.93L19.49 7.14L19.49 7.57L20.62 7.69L20.62 13.40L19.50 13.57L19.50 14L22.90 14L22.90 13.57L21.92 13.40L21.92 9.79C21.92 9.13 21.87 8.37 21.87 8.37C22.36 8.12 22.86 7.91 23.42 7.91C24.46 7.91 24.86 8.58 24.86 9.60L24.86 13.40L23.88 13.57L23.88 14L27.15 14L27.15 13.57L26.17 13.40ZM38.40 10.40C38.60 8.13 37.67 6.86 35.73 6.86C33.96 6.86 32.49 8.30 32.49 10.63C32.49 12.67 33.75 14.14 35.77 14.14C37.23 14.14 38.12 13.41 38.12 13.41L38.12 12.94C38.12 12.94 37.28 13.27 36.33 13.27C34.80 13.27 33.87 12.07 33.82 10.40ZM35.67 7.57C36.88 7.57 37.11 8.55 37.13 9.66L33.85 9.74C33.98 8.41 34.65 7.57 35.67 7.57ZM44.65 5.22C45.18 5.22 45.53 4.91 45.53 4.40C45.53 3.93 45.22 3.64 44.72 3.64C44.20 3.64 43.82 3.93 43.82 4.42C43.82 4.90 44.17 5.22 44.65 5.22ZM45.05 6.93L42.90 7.13L42.90 7.56L44.03 7.67L44.03 13.40L42.91 13.57L42.91 14L46.45 14L46.45 13.57L45.33 13.40L45.33 7ZM54.28 9.37C54.28 7.88 53.49 6.86 52.02 6.86C51.14 6.86 50.39 7.34 49.76 7.83L49.81 7L49.53 6.93L47.38 7.14L47.38 7.57L48.51 7.69L48.51 13.41L47.39 13.57L47.39 14L50.79 14L50.79 13.57L49.81 13.41L49.81 9.70C49.81 8.95 49.76 8.37 49.76 8.37C49.76 8.37 50.53 7.90 51.53 7.90C52.54 7.90 52.98 8.53 52.98 9.69L52.98 13.41L52.00 13.57L52.00 14L55.40 14L55.40 13.57L54.28 13.41ZM56.06 7.63L57.02 7.64C56.99 7.81 56.97 8.37 56.97 8.78L56.97 11.94C56.97 13.51 57.71 14.14 58.81 14.14C59.91 14.14 60.65 13.52 60.65 13.52L60.65 13.01C60.65 13.01 60.06 13.27 59.33 13.27C58.58 13.27 58.25 12.81 58.25 11.93L58.25 7.66L60.63 7.77L60.63 7L58.25 7L58.27 5.38L57.97 5.38L56.95 7L56.06 7.32ZM67.56 10.40C67.76 8.13 66.84 6.86 64.89 6.86C63.13 6.86 61.66 8.30 61.66 10.63C61.66 12.67 62.92 14.14 64.93 14.14C66.39 14.14 67.28 13.41 67.28 13.41L67.28 12.94C67.28 12.94 66.44 13.27 65.49 13.27C63.97 13.27 63.03 12.07 62.99 10.40ZM64.83 7.57C66.04 7.57 66.28 8.55 66.29 9.66L63.01 9.74C63.14 8.41 63.81 7.57 64.83 7.57ZM71.15 8.44C71.55 8.16 72.07 7.92 72.55 7.92C73.16 7.92 73.42 8.33 74.02 8.58L74.56 7.56C73.99 7.32 73.72 6.86 73.01 6.86C72.31 6.86 71.64 7.45 71.15 7.94L71.20 7L70.92 6.93L68.77 7.13L68.77 7.56L69.90 7.67L69.90 13.40L68.78 13.57L68.78 14L72.60 14L72.60 13.57L71.20 13.40L71.20 9.84C71.20 9.09 71.15 8.44 71.15 8.44ZM77 5.22C77.53 5.22 77.88 4.91 77.88 4.40C77.88 3.93 77.57 3.64 77.07 3.64C76.55 3.64 76.17 3.93 76.17 4.42C76.17 4.90 76.52 5.22 77 5.22ZM77.41 6.93L75.25 7.13L75.25 7.56L76.38 7.67L76.38 13.40L75.26 13.57L75.26 14L78.81 14L78.81 13.57L77.69 13.40L77.69 7ZM83.13 13.45C81.90 13.45 81.16 12.29 81.16 10.49C81.16 8.76 81.70 7.55 83.16 7.55C84.39 7.55 85.13 8.71 85.13 10.51C85.13 12.24 84.59 13.45 83.13 13.45ZM82.96 14.14C85.29 14.14 86.46 12.50 86.46 10.35C86.46 8.27 85.29 6.86 83.33 6.86C81.00 6.86 79.83 8.50 79.83 10.65C79.83 12.73 81.00 14.14 82.96 14.14Z"></path></g><!----><!----></svg>